<?xml version="1.0" encoding="UTF-8"?>
<svg xmlns="http://www.w3.org/2000/svg" xmlns:xlink="http://www.w3.org/1999/xlink" width="2400" height="2400" viewBox="0 0 2400 2400">
<defs>
<clipPath id="clip-0">
<path clip-rule="nonzero" d="M 1286 1502 L 2216 1502 L 2216 1963 L 1286 1963 Z M 1286 1502 "/>
</clipPath>
<clipPath id="clip-1">
<path clip-rule="nonzero" d="M 1921.890625 1796.78125 C 1933.578125 1796.691406 1950.121094 1796.171875 1966.511719 1794 C 1992.558594 1790.550781 2017.378906 1784.628906 2038.800781 1771.480469 C 2062.679688 1756.828125 2082.988281 1739.390625 2101.96875 1720.839844 C 2104.050781 1718.808594 2102.878906 1718.289062 2100.660156 1717.601562 C 2067.03125 1707.191406 2033.179688 1697.339844 1997.660156 1691.800781 C 1969.519531 1687.410156 1941.148438 1685.050781 1912.859375 1690.070312 C 1878.488281 1696.160156 1851.75 1711.339844 1835.109375 1736.449219 C 1824.75 1752.078125 1821.359375 1769.429688 1819.160156 1786.898438 C 1818.789062 1789.820312 1820.890625 1789.839844 1823.199219 1790.109375 C 1854.328125 1793.628906 1885.519531 1796.53125 1921.890625 1796.78125 Z M 1580.488281 1796.78125 C 1616.71875 1796.550781 1647.910156 1793.621094 1679.050781 1790.179688 C 1682.46875 1789.808594 1683.699219 1788.878906 1683.261719 1785.988281 C 1682.050781 1778.121094 1680.621094 1770.289062 1678.640625 1762.511719 C 1669.441406 1726.339844 1641.929688 1703.191406 1598.800781 1691.949219 C 1573.410156 1685.328125 1547.101562 1686.601562 1521.03125 1689.578125 C 1479.691406 1694.289062 1440.699219 1705.558594 1401.96875 1717.5 C 1398.660156 1718.519531 1398.921875 1719.351562 1400.871094 1721.269531 C 1415.011719 1735.101562 1429.921875 1748.351562 1446.628906 1760.230469 C 1461.511719 1770.800781 1477.199219 1780.339844 1496.21875 1785.878906 C 1525.011719 1794.261719 1554.871094 1796.75 1580.488281 1796.78125 Z M 1286.640625 1531.488281 C 1286.640625 1530.25 1286.640625 1529.011719 1286.640625 1527.769531 C 1313.238281 1545.121094 1342.160156 1563.761719 1377.808594 1560.421875 C 1407.378906 1557.640625 1425.359375 1556.171875 1509.480469 1531.929688 C 1609.738281 1503.039062 1621.25 1501.539062 1635.859375 1502.570312 C 1665.839844 1504.671875 1707.738281 1517.300781 1755.660156 1566.5 C 1782.28125 1530.300781 1810.058594 1516.710938 1829.53125 1510.808594 C 1921.25 1483.058594 1997.859375 1574.910156 2120.96875 1560.300781 C 2163.378906 1555.269531 2195.980469 1539.421875 2215.851562 1527.769531 C 2213.558594 1547.988281 2207.929688 1568.050781 2204.808594 1588.269531 C 2186.519531 1706.910156 2191.519531 1730.808594 2182.398438 1764.878906 C 2151.738281 1879.328125 1976.71875 1986.171875 1844.058594 1955.28125 C 1803.949219 1945.941406 1774.601562 1925.621094 1755.660156 1909.230469 C 1731.488281 1927.878906 1691.128906 1953.058594 1636.988281 1960.25 C 1499.648438 1978.488281 1352.160156 1875.789062 1324.511719 1780.441406 C 1300.839844 1698.789062 1308.238281 1613.539062 1286.640625 1531.488281 Z M 1286.640625 1531.488281 "/>
</clipPath>
<clipPath id="clip-2">
<path clip-rule="nonzero" d="M 1921.890625 1796.78125 C 1933.578125 1796.691406 1950.121094 1796.171875 1966.511719 1794 C 1992.558594 1790.550781 2017.378906 1784.628906 2038.800781 1771.480469 C 2062.679688 1756.828125 2082.988281 1739.390625 2101.96875 1720.839844 C 2104.050781 1718.808594 2102.878906 1718.289062 2100.660156 1717.601562 C 2067.03125 1707.191406 2033.179688 1697.339844 1997.660156 1691.800781 C 1969.519531 1687.410156 1941.148438 1685.050781 1912.859375 1690.070312 C 1878.488281 1696.160156 1851.75 1711.339844 1835.109375 1736.449219 C 1824.75 1752.078125 1821.359375 1769.429688 1819.160156 1786.898438 C 1818.789062 1789.820312 1820.890625 1789.839844 1823.199219 1790.109375 C 1854.328125 1793.628906 1885.519531 1796.53125 1921.890625 1796.78125 Z M 1580.488281 1796.78125 C 1616.71875 1796.550781 1647.910156 1793.621094 1679.050781 1790.179688 C 1682.46875 1789.808594 1683.699219 1788.878906 1683.261719 1785.988281 C 1682.050781 1778.121094 1680.621094 1770.289062 1678.640625 1762.511719 C 1669.441406 1726.339844 1641.929688 1703.191406 1598.800781 1691.949219 C 1573.410156 1685.328125 1547.101562 1686.601562 1521.03125 1689.578125 C 1479.691406 1694.289062 1440.699219 1705.558594 1401.96875 1717.5 C 1398.660156 1718.519531 1398.921875 1719.351562 1400.871094 1721.269531 C 1415.011719 1735.101562 1429.921875 1748.351562 1446.628906 1760.230469 C 1461.511719 1770.800781 1477.199219 1780.339844 1496.21875 1785.878906 C 1525.011719 1794.261719 1554.871094 1796.75 1580.488281 1796.78125 Z M 1286.640625 1531.488281 C 1286.640625 1530.25 1286.640625 1529.011719 1286.640625 1527.769531 C 1313.238281 1545.121094 1342.160156 1563.761719 1377.808594 1560.421875 C 1407.378906 1557.640625 1425.359375 1556.171875 1509.480469 1531.929688 C 1609.738281 1503.039062 1621.25 1501.539062 1635.859375 1502.570312 C 1665.839844 1504.671875 1707.738281 1517.300781 1755.660156 1566.5 C 1782.28125 1530.300781 1810.058594 1516.710938 1829.53125 1510.808594 C 1921.25 1483.058594 1997.859375 1574.910156 2120.96875 1560.300781 C 2163.378906 1555.269531 2195.980469 1539.421875 2215.851562 1527.769531 C 2213.558594 1547.988281 2207.929688 1568.050781 2204.808594 1588.269531 C 2186.519531 1706.910156 2191.519531 1730.808594 2182.398438 1764.878906 C 2151.738281 1879.328125 1976.71875 1986.171875 1844.058594 1955.28125 C 1803.949219 1945.941406 1774.601562 1925.621094 1755.660156 1909.230469 C 1731.488281 1927.878906 1691.128906 1953.058594 1636.988281 1960.25 C 1499.648438 1978.488281 1352.160156 1875.789062 1324.511719 1780.441406 C 1300.839844 1698.789062 1308.238281 1613.539062 1286.640625 1531.488281 "/>
</clipPath>
<linearGradient id="linear-pattern-0" gradientUnits="userSpaceOnUse" x1="0.000000000000000222" y1="0" x2="0.999998" y2="0" gradientTransform="matrix(929.212, 0, 0, 929.212, 1286.64, 1732.36)">
<stop offset="0" stop-color="rgb(0%, 71.763611%, 100%)" stop-opacity="1"/>
<stop offset="0.03125" stop-color="rgb(0%, 71.589661%, 99.807739%)" stop-opacity="1"/>
<stop offset="0.046875" stop-color="rgb(0.00305176%, 71.276855%, 99.464417%)" stop-opacity="1"/>
<stop offset="0.0625" stop-color="rgb(0.00457764%, 70.976257%, 99.134827%)" stop-opacity="1"/>
<stop offset="0.0703125" stop-color="rgb(0.00610352%, 70.727539%, 98.860168%)" stop-opacity="1"/>
<stop offset="0.078125" stop-color="rgb(0.00762939%, 70.545959%, 98.661804%)" stop-opacity="1"/>
<stop offset="0.0859375" stop-color="rgb(0.00915527%, 70.35675%, 98.454285%)" stop-opacity="1"/>
<stop offset="0.09375" stop-color="rgb(0.0106812%, 70.159912%, 98.23761%)" stop-opacity="1"/>
<stop offset="0.101562" stop-color="rgb(0.012207%, 69.953918%, 98.013306%)" stop-opacity="1"/>
<stop offset="0.109375" stop-color="rgb(0.0137329%, 69.741821%, 97.779846%)" stop-opacity="1"/>
<stop offset="0.117188" stop-color="rgb(0.0152588%, 69.522095%, 97.538757%)" stop-opacity="1"/>
<stop offset="0.125" stop-color="rgb(0.0167847%, 69.294739%, 97.290039%)" stop-opacity="1"/>
<stop offset="0.132813" stop-color="rgb(0.0183105%, 69.061279%, 97.033691%)" stop-opacity="1"/>
<stop offset="0.140625" stop-color="rgb(0.0213623%, 68.821716%, 96.769714%)" stop-opacity="1"/>
<stop offset="0.148437" stop-color="rgb(0.0228882%, 68.57605%, 96.499634%)" stop-opacity="1"/>
<stop offset="0.15625" stop-color="rgb(0.0244141%, 68.32428%, 96.22345%)" stop-opacity="1"/>
<stop offset="0.164063" stop-color="rgb(0.0259399%, 68.066406%, 95.941162%)" stop-opacity="1"/>
<stop offset="0.171875" stop-color="rgb(0.0289917%, 67.803955%, 95.652771%)" stop-opacity="1"/>
<stop offset="0.179687" stop-color="rgb(0.0305176%, 67.5354%, 95.35675%)" stop-opacity="1"/>
<stop offset="0.1875" stop-color="rgb(0.0320435%, 67.260742%, 95.056152%)" stop-opacity="1"/>
<stop offset="0.195313" stop-color="rgb(0.0350952%, 66.981506%, 94.749451%)" stop-opacity="1"/>
<stop offset="0.203125" stop-color="rgb(0.0366211%, 66.697693%, 94.436646%)" stop-opacity="1"/>
<stop offset="0.210937" stop-color="rgb(0.0396729%, 66.407776%, 94.119263%)" stop-opacity="1"/>
<stop offset="0.21875" stop-color="rgb(0.0411987%, 66.113281%, 93.795776%)" stop-opacity="1"/>
<stop offset="0.226563" stop-color="rgb(0.0442505%, 65.814209%, 93.466187%)" stop-opacity="1"/>
<stop offset="0.234375" stop-color="rgb(0.0457764%, 65.509033%, 93.133545%)" stop-opacity="1"/>
<stop offset="0.242187" stop-color="rgb(0.0488281%, 65.200806%, 92.7948%)" stop-opacity="1"/>
<stop offset="0.25" stop-color="rgb(0.050354%, 64.886475%, 92.449951%)" stop-opacity="1"/>
<stop offset="0.257812" stop-color="rgb(0.0534058%, 64.569092%, 92.102051%)" stop-opacity="1"/>
<stop offset="0.265625" stop-color="rgb(0.0549316%, 64.247131%, 91.748047%)" stop-opacity="1"/>
<stop offset="0.273438" stop-color="rgb(0.0579834%, 63.920593%, 91.390991%)" stop-opacity="1"/>
<stop offset="0.28125" stop-color="rgb(0.0610352%, 63.591003%, 91.027832%)" stop-opacity="1"/>
<stop offset="0.289062" stop-color="rgb(0.062561%, 63.25531%, 90.660095%)" stop-opacity="1"/>
<stop offset="0.296875" stop-color="rgb(0.0656128%, 62.916565%, 90.287781%)" stop-opacity="1"/>
<stop offset="0.304688" stop-color="rgb(0.0686646%, 62.574768%, 89.910889%)" stop-opacity="1"/>
<stop offset="0.3125" stop-color="rgb(0.0701904%, 62.226868%, 89.529419%)" stop-opacity="1"/>
<stop offset="0.320312" stop-color="rgb(0.0732422%, 61.875916%, 89.144897%)" stop-opacity="1"/>
<stop offset="0.324219" stop-color="rgb(0.0762939%, 61.521912%, 88.755798%)" stop-opacity="1"/>
<stop offset="0.328125" stop-color="rgb(0.0778198%, 61.343384%, 88.560486%)" stop-opacity="1"/>
<stop offset="0.332031" stop-color="rgb(0.0793457%, 61.16333%, 88.362122%)" stop-opacity="1"/>
<stop offset="0.335938" stop-color="rgb(0.0808716%, 60.983276%, 88.165283%)" stop-opacity="1"/>
<stop offset="0.339844" stop-color="rgb(0.0808716%, 60.800171%, 87.965393%)" stop-opacity="1"/>
<stop offset="0.34375" stop-color="rgb(0.0823975%, 60.618591%, 87.765503%)" stop-opacity="1"/>
<stop offset="0.347656" stop-color="rgb(0.0839233%, 60.43396%, 87.562561%)" stop-opacity="1"/>
<stop offset="0.351562" stop-color="rgb(0.0854492%, 60.250854%, 87.361145%)" stop-opacity="1"/>
<stop offset="0.355469" stop-color="rgb(0.0869751%, 60.064697%, 87.156677%)" stop-opacity="1"/>
<stop offset="0.359375" stop-color="rgb(0.088501%, 59.880066%, 86.953735%)" stop-opacity="1"/>
<stop offset="0.363281" stop-color="rgb(0.0900269%, 59.692383%, 86.747742%)" stop-opacity="1"/>
<stop offset="0.367188" stop-color="rgb(0.0915527%, 59.5047%, 86.541748%)" stop-opacity="1"/>
<stop offset="0.371094" stop-color="rgb(0.0930786%, 59.315491%, 86.332703%)" stop-opacity="1"/>
<stop offset="0.375" stop-color="rgb(0.0946045%, 59.126282%, 86.125183%)" stop-opacity="1"/>
<stop offset="0.378906" stop-color="rgb(0.0961304%, 58.934021%, 85.914612%)" stop-opacity="1"/>
<stop offset="0.382812" stop-color="rgb(0.0976562%, 58.743286%, 85.705566%)" stop-opacity="1"/>
<stop offset="0.386719" stop-color="rgb(0.0991821%, 58.5495%, 85.493469%)" stop-opacity="1"/>
<stop offset="0.390625" stop-color="rgb(0.100708%, 58.357239%, 85.282898%)" stop-opacity="1"/>
<stop offset="0.394531" stop-color="rgb(0.100708%, 58.161926%, 85.069275%)" stop-opacity="1"/>
<stop offset="0.398438" stop-color="rgb(0.102234%, 57.96814%, 84.855652%)" stop-opacity="1"/>
<stop offset="0.402344" stop-color="rgb(0.10376%, 57.771301%, 84.638977%)" stop-opacity="1"/>
<stop offset="0.40625" stop-color="rgb(0.105286%, 57.575989%, 84.423828%)" stop-opacity="1"/>
<stop offset="0.410156" stop-color="rgb(0.106812%, 57.377625%, 84.205627%)" stop-opacity="1"/>
<stop offset="0.414062" stop-color="rgb(0.108337%, 57.17926%, 83.988953%)" stop-opacity="1"/>
<stop offset="0.417969" stop-color="rgb(0.109863%, 56.97937%, 83.769226%)" stop-opacity="1"/>
<stop offset="0.421875" stop-color="rgb(0.111389%, 56.781006%, 83.551025%)" stop-opacity="1"/>
<stop offset="0.425781" stop-color="rgb(0.112915%, 56.57959%, 83.329773%)" stop-opacity="1"/>
<stop offset="0.429688" stop-color="rgb(0.114441%, 56.378174%, 83.108521%)" stop-opacity="1"/>
<stop offset="0.433594" stop-color="rgb(0.115967%, 56.175232%, 82.885742%)" stop-opacity="1"/>
<stop offset="0.4375" stop-color="rgb(0.117493%, 55.97229%, 82.662964%)" stop-opacity="1"/>
<stop offset="0.441406" stop-color="rgb(0.119019%, 55.767822%, 82.43866%)" stop-opacity="1"/>
<stop offset="0.445312" stop-color="rgb(0.120544%, 55.563354%, 82.214355%)" stop-opacity="1"/>
<stop offset="0.449219" stop-color="rgb(0.12207%, 55.355835%, 81.987%)" stop-opacity="1"/>
<stop offset="0.453125" stop-color="rgb(0.123596%, 55.149841%, 81.761169%)" stop-opacity="1"/>
<stop offset="0.457031" stop-color="rgb(0.125122%, 54.942322%, 81.532288%)" stop-opacity="1"/>
<stop offset="0.460938" stop-color="rgb(0.126648%, 54.734802%, 81.304932%)" stop-opacity="1"/>
<stop offset="0.464844" stop-color="rgb(0.128174%, 54.525757%, 81.074524%)" stop-opacity="1"/>
<stop offset="0.46875" stop-color="rgb(0.1297%, 54.316711%, 80.845642%)" stop-opacity="1"/>
<stop offset="0.472656" stop-color="rgb(0.131226%, 54.104614%, 80.613708%)" stop-opacity="1"/>
<stop offset="0.476562" stop-color="rgb(0.134277%, 53.894043%, 80.383301%)" stop-opacity="1"/>
<stop offset="0.480469" stop-color="rgb(0.135803%, 53.681946%, 80.149841%)" stop-opacity="1"/>
<stop offset="0.484375" stop-color="rgb(0.137329%, 53.469849%, 79.916382%)" stop-opacity="1"/>
<stop offset="0.488281" stop-color="rgb(0.138855%, 53.2547%, 79.681396%)" stop-opacity="1"/>
<stop offset="0.492188" stop-color="rgb(0.140381%, 53.041077%, 79.446411%)" stop-opacity="1"/>
<stop offset="0.496094" stop-color="rgb(0.141907%, 52.825928%, 79.2099%)" stop-opacity="1"/>
<stop offset="0.5" stop-color="rgb(0.143433%, 52.610779%, 78.973389%)" stop-opacity="1"/>
<stop offset="0.503906" stop-color="rgb(0.144958%, 52.392578%, 78.735352%)" stop-opacity="1"/>
<stop offset="0.507812" stop-color="rgb(0.146484%, 52.175903%, 78.497314%)" stop-opacity="1"/>
<stop offset="0.511719" stop-color="rgb(0.14801%, 51.957703%, 78.256226%)" stop-opacity="1"/>
<stop offset="0.515625" stop-color="rgb(0.149536%, 51.739502%, 78.016663%)" stop-opacity="1"/>
<stop offset="0.519531" stop-color="rgb(0.151062%, 51.51825%, 77.775574%)" stop-opacity="1"/>
<stop offset="0.523438" stop-color="rgb(0.152588%, 51.298523%, 77.534485%)" stop-opacity="1"/>
<stop offset="0.527344" stop-color="rgb(0.154114%, 51.077271%, 77.290344%)" stop-opacity="1"/>
<stop offset="0.53125" stop-color="rgb(0.157166%, 50.856018%, 77.047729%)" stop-opacity="1"/>
<stop offset="0.535156" stop-color="rgb(0.158691%, 50.63324%, 76.802063%)" stop-opacity="1"/>
<stop offset="0.539062" stop-color="rgb(0.160217%, 50.410461%, 76.557922%)" stop-opacity="1"/>
<stop offset="0.542969" stop-color="rgb(0.161743%, 50.186157%, 76.312256%)" stop-opacity="1"/>
<stop offset="0.546875" stop-color="rgb(0.163269%, 49.961853%, 76.066589%)" stop-opacity="1"/>
<stop offset="0.550781" stop-color="rgb(0.164795%, 49.736023%, 75.817871%)" stop-opacity="1"/>
<stop offset="0.554687" stop-color="rgb(0.166321%, 49.510193%, 75.570679%)" stop-opacity="1"/>
<stop offset="0.558594" stop-color="rgb(0.167847%, 49.282837%, 75.320435%)" stop-opacity="1"/>
<stop offset="0.5625" stop-color="rgb(0.169373%, 49.055481%, 75.071716%)" stop-opacity="1"/>
<stop offset="0.566406" stop-color="rgb(0.170898%, 48.826599%, 74.819946%)" stop-opacity="1"/>
<stop offset="0.570313" stop-color="rgb(0.17395%, 48.599243%, 74.569702%)" stop-opacity="1"/>
<stop offset="0.574219" stop-color="rgb(0.175476%, 48.368835%, 74.316406%)" stop-opacity="1"/>
<stop offset="0.578125" stop-color="rgb(0.177002%, 48.138428%, 74.064636%)" stop-opacity="1"/>
<stop offset="0.582031" stop-color="rgb(0.178528%, 47.906494%, 73.809814%)" stop-opacity="1"/>
<stop offset="0.585938" stop-color="rgb(0.180054%, 47.676086%, 73.556519%)" stop-opacity="1"/>
<stop offset="0.589844" stop-color="rgb(0.18158%, 47.442627%, 73.300171%)" stop-opacity="1"/>
<stop offset="0.59375" stop-color="rgb(0.183105%, 47.210693%, 73.045349%)" stop-opacity="1"/>
<stop offset="0.597656" stop-color="rgb(0.184631%, 46.975708%, 72.787476%)" stop-opacity="1"/>
<stop offset="0.601562" stop-color="rgb(0.187683%, 46.742249%, 72.531128%)" stop-opacity="1"/>
<stop offset="0.605469" stop-color="rgb(0.189209%, 46.505737%, 72.271729%)" stop-opacity="1"/>
<stop offset="0.609375" stop-color="rgb(0.190735%, 46.270752%, 72.013855%)" stop-opacity="1"/>
<stop offset="0.613281" stop-color="rgb(0.192261%, 46.034241%, 71.754456%)" stop-opacity="1"/>
<stop offset="0.617188" stop-color="rgb(0.193787%, 45.797729%, 71.495056%)" stop-opacity="1"/>
<stop offset="0.621094" stop-color="rgb(0.195312%, 45.559692%, 71.232605%)" stop-opacity="1"/>
<stop offset="0.625" stop-color="rgb(0.198364%, 45.321655%, 70.97168%)" stop-opacity="1"/>
<stop offset="0.628906" stop-color="rgb(0.19989%, 45.082092%, 70.707703%)" stop-opacity="1"/>
<stop offset="0.632812" stop-color="rgb(0.201416%, 44.842529%, 70.445251%)" stop-opacity="1"/>
<stop offset="0.636719" stop-color="rgb(0.202942%, 44.60144%, 70.181274%)" stop-opacity="1"/>
<stop offset="0.640625" stop-color="rgb(0.205994%, 44.360352%, 69.917297%)" stop-opacity="1"/>
<stop offset="0.644531" stop-color="rgb(0.20752%, 44.117737%, 69.650269%)" stop-opacity="1"/>
<stop offset="0.648438" stop-color="rgb(0.209045%, 43.876648%, 69.384766%)" stop-opacity="1"/>
<stop offset="0.652344" stop-color="rgb(0.210571%, 43.632507%, 69.117737%)" stop-opacity="1"/>
<stop offset="0.65625" stop-color="rgb(0.212097%, 43.388367%, 68.850708%)" stop-opacity="1"/>
<stop offset="0.660156" stop-color="rgb(0.213623%, 43.144226%, 68.582153%)" stop-opacity="1"/>
<stop offset="0.664062" stop-color="rgb(0.216675%, 42.900085%, 68.313599%)" stop-opacity="1"/>
<stop offset="0.667969" stop-color="rgb(0.218201%, 42.652893%, 68.043518%)" stop-opacity="1"/>
<stop offset="0.671875" stop-color="rgb(0.219727%, 42.407227%, 67.773438%)" stop-opacity="1"/>
<stop offset="0.675781" stop-color="rgb(0.221252%, 42.160034%, 67.501831%)" stop-opacity="1"/>
<stop offset="0.679687" stop-color="rgb(0.224304%, 41.912842%, 67.230225%)" stop-opacity="1"/>
<stop offset="0.683594" stop-color="rgb(0.22583%, 41.664124%, 66.957092%)" stop-opacity="1"/>
<stop offset="0.6875" stop-color="rgb(0.227356%, 41.415405%, 66.685486%)" stop-opacity="1"/>
<stop offset="0.691406" stop-color="rgb(0.228882%, 41.165161%, 66.410828%)" stop-opacity="1"/>
<stop offset="0.695313" stop-color="rgb(0.231934%, 40.916443%, 66.136169%)" stop-opacity="1"/>
<stop offset="0.699219" stop-color="rgb(0.233459%, 40.664673%, 65.859985%)" stop-opacity="1"/>
<stop offset="0.703125" stop-color="rgb(0.234985%, 40.414429%, 65.585327%)" stop-opacity="1"/>
<stop offset="0.707031" stop-color="rgb(0.236511%, 40.161133%, 65.307617%)" stop-opacity="1"/>
<stop offset="0.710938" stop-color="rgb(0.238037%, 39.909363%, 65.031433%)" stop-opacity="1"/>
<stop offset="0.714844" stop-color="rgb(0.239563%, 39.656067%, 64.752197%)" stop-opacity="1"/>
<stop offset="0.71875" stop-color="rgb(0.242615%, 39.402771%, 64.474487%)" stop-opacity="1"/>
<stop offset="0.722656" stop-color="rgb(0.244141%, 39.147949%, 64.193726%)" stop-opacity="1"/>
<stop offset="0.726562" stop-color="rgb(0.245667%, 38.893127%, 63.91449%)" stop-opacity="1"/>
<stop offset="0.730469" stop-color="rgb(0.247192%, 38.63678%, 63.633728%)" stop-opacity="1"/>
<stop offset="0.734375" stop-color="rgb(0.250244%, 38.380432%, 63.352966%)" stop-opacity="1"/>
<stop offset="0.738281" stop-color="rgb(0.25177%, 38.122559%, 63.070679%)" stop-opacity="1"/>
<stop offset="0.742188" stop-color="rgb(0.254822%, 37.866211%, 62.788391%)" stop-opacity="1"/>
<stop offset="0.746094" stop-color="rgb(0.256348%, 37.606812%, 62.504578%)" stop-opacity="1"/>
<stop offset="0.75" stop-color="rgb(0.257874%, 37.348938%, 62.220764%)" stop-opacity="1"/>
<stop offset="0.753906" stop-color="rgb(0.259399%, 37.089539%, 61.935425%)" stop-opacity="1"/>
<stop offset="0.757812" stop-color="rgb(0.262451%, 36.830139%, 61.650085%)" stop-opacity="1"/>
<stop offset="0.761719" stop-color="rgb(0.263977%, 36.569214%, 61.36322%)" stop-opacity="1"/>
<stop offset="0.765625" stop-color="rgb(0.265503%, 36.308289%, 61.077881%)" stop-opacity="1"/>
<stop offset="0.769531" stop-color="rgb(0.267029%, 36.045837%, 60.78949%)" stop-opacity="1"/>
<stop offset="0.773438" stop-color="rgb(0.270081%, 35.783386%, 60.502625%)" stop-opacity="1"/>
<stop offset="0.777344" stop-color="rgb(0.271606%, 35.519409%, 60.212708%)" stop-opacity="1"/>
<stop offset="0.78125" stop-color="rgb(0.273132%, 35.256958%, 59.924316%)" stop-opacity="1"/>
<stop offset="0.785156" stop-color="rgb(0.274658%, 34.992981%, 59.634399%)" stop-opacity="1"/>
<stop offset="0.789062" stop-color="rgb(0.27771%, 34.729004%, 59.344482%)" stop-opacity="1"/>
<stop offset="0.792969" stop-color="rgb(0.279236%, 34.463501%, 59.05304%)" stop-opacity="1"/>
<stop offset="0.796875" stop-color="rgb(0.282288%, 34.197998%, 58.761597%)" stop-opacity="1"/>
<stop offset="0.800781" stop-color="rgb(0.283813%, 33.930969%, 58.468628%)" stop-opacity="1"/>
<stop offset="0.804687" stop-color="rgb(0.285339%, 33.66394%, 58.175659%)" stop-opacity="1"/>
<stop offset="0.808594" stop-color="rgb(0.286865%, 33.395386%, 57.881165%)" stop-opacity="1"/>
<stop offset="0.8125" stop-color="rgb(0.289917%, 33.128357%, 57.588196%)" stop-opacity="1"/>
<stop offset="0.816406" stop-color="rgb(0.291443%, 32.859802%, 57.292175%)" stop-opacity="1"/>
<stop offset="0.820313" stop-color="rgb(0.294495%, 32.591248%, 56.997681%)" stop-opacity="1"/>
<stop offset="0.824219" stop-color="rgb(0.296021%, 32.319641%, 56.700134%)" stop-opacity="1"/>
<stop offset="0.828125" stop-color="rgb(0.297546%, 32.049561%, 56.404114%)" stop-opacity="1"/>
<stop offset="0.832031" stop-color="rgb(0.299072%, 31.777954%, 56.105042%)" stop-opacity="1"/>
<stop offset="0.835938" stop-color="rgb(0.302124%, 31.507874%, 55.807495%)" stop-opacity="1"/>
<stop offset="0.839844" stop-color="rgb(0.30365%, 31.234741%, 55.508423%)" stop-opacity="1"/>
<stop offset="0.84375" stop-color="rgb(0.306702%, 30.963135%, 55.209351%)" stop-opacity="1"/>
<stop offset="0.847656" stop-color="rgb(0.308228%, 30.688477%, 54.908752%)" stop-opacity="1"/>
<stop offset="0.851562" stop-color="rgb(0.309753%, 30.415344%, 54.60968%)" stop-opacity="1"/>
<stop offset="0.855469" stop-color="rgb(0.311279%, 30.140686%, 54.307556%)" stop-opacity="1"/>
<stop offset="0.859375" stop-color="rgb(0.314331%, 29.866028%, 54.006958%)" stop-opacity="1"/>
<stop offset="0.863281" stop-color="rgb(0.315857%, 29.589844%, 53.703308%)" stop-opacity="1"/>
<stop offset="0.867188" stop-color="rgb(0.318909%, 29.315186%, 53.401184%)" stop-opacity="1"/>
<stop offset="0.871094" stop-color="rgb(0.320435%, 29.037476%, 53.096008%)" stop-opacity="1"/>
<stop offset="0.875" stop-color="rgb(0.32196%, 28.761292%, 52.792358%)" stop-opacity="1"/>
<stop offset="0.878906" stop-color="rgb(0.323486%, 28.482056%, 52.487183%)" stop-opacity="1"/>
<stop offset="0.882812" stop-color="rgb(0.326538%, 28.204346%, 52.182007%)" stop-opacity="1"/>
<stop offset="0.886719" stop-color="rgb(0.328064%, 27.92511%, 51.875305%)" stop-opacity="1"/>
<stop offset="0.890625" stop-color="rgb(0.331116%, 27.6474%, 51.570129%)" stop-opacity="1"/>
<stop offset="0.894531" stop-color="rgb(0.332642%, 27.366638%, 51.261902%)" stop-opacity="1"/>
<stop offset="0.898438" stop-color="rgb(0.335693%, 27.085876%, 50.9552%)" stop-opacity="1"/>
<stop offset="0.902344" stop-color="rgb(0.337219%, 26.805115%, 50.645447%)" stop-opacity="1"/>
<stop offset="0.90625" stop-color="rgb(0.338745%, 26.524353%, 50.337219%)" stop-opacity="1"/>
<stop offset="0.910156" stop-color="rgb(0.340271%, 26.242065%, 50.027466%)" stop-opacity="1"/>
<stop offset="0.914062" stop-color="rgb(0.343323%, 25.959778%, 49.717712%)" stop-opacity="1"/>
<stop offset="0.917969" stop-color="rgb(0.344849%, 25.675964%, 49.406433%)" stop-opacity="1"/>
<stop offset="0.921875" stop-color="rgb(0.3479%, 25.392151%, 49.095154%)" stop-opacity="1"/>
<stop offset="0.925781" stop-color="rgb(0.349426%, 25.106812%, 48.782349%)" stop-opacity="1"/>
<stop offset="0.929687" stop-color="rgb(0.352478%, 24.822998%, 48.471069%)" stop-opacity="1"/>
<stop offset="0.933594" stop-color="rgb(0.354004%, 24.537659%, 48.156738%)" stop-opacity="1"/>
<stop offset="0.9375" stop-color="rgb(0.357056%, 24.252319%, 47.843933%)" stop-opacity="1"/>
<stop offset="0.941406" stop-color="rgb(0.358582%, 23.965454%, 47.528076%)" stop-opacity="1"/>
<stop offset="0.945313" stop-color="rgb(0.360107%, 23.678589%, 47.213745%)" stop-opacity="1"/>
<stop offset="0.949219" stop-color="rgb(0.361633%, 23.390198%, 46.897888%)" stop-opacity="1"/>
<stop offset="0.953125" stop-color="rgb(0.364685%, 23.103333%, 46.582031%)" stop-opacity="1"/>
<stop offset="0.957031" stop-color="rgb(0.366211%, 22.814941%, 46.264648%)" stop-opacity="1"/>
<stop offset="0.960938" stop-color="rgb(0.369263%, 22.52655%, 45.948792%)" stop-opacity="1"/>
<stop offset="0.964844" stop-color="rgb(0.370789%, 22.236633%, 45.629883%)" stop-opacity="1"/>
<stop offset="0.96875" stop-color="rgb(0.37384%, 21.946716%, 45.3125%)" stop-opacity="1"/>
<stop offset="0.972656" stop-color="rgb(0.375366%, 21.655273%, 44.992065%)" stop-opacity="1"/>
<stop offset="0.976562" stop-color="rgb(0.378418%, 21.365356%, 44.673157%)" stop-opacity="1"/>
<stop offset="0.980469" stop-color="rgb(0.379944%, 21.072388%, 44.352722%)" stop-opacity="1"/>
<stop offset="0.984375" stop-color="rgb(0.382996%, 20.780945%, 44.032288%)" stop-opacity="1"/>
<stop offset="0.988281" stop-color="rgb(0.384521%, 20.487976%, 43.710327%)" stop-opacity="1"/>
<stop offset="0.992188" stop-color="rgb(0.387573%, 20.195007%, 43.389893%)" stop-opacity="1"/>
<stop offset="0.996094" stop-color="rgb(0.389099%, 19.900513%, 43.066406%)" stop-opacity="1"/>
<stop offset="1" stop-color="rgb(0.392151%, 19.607544%, 42.744446%)" stop-opacity="1"/>
</linearGradient>
</defs>
<rect x="-240" y="-240" width="2880" height="2880" fill="rgb(100%, 100%, 100%)" fill-opacity="1"/>
<path fill-rule="nonzero" fill="rgb(0%, 0%, 0%)" fill-opacity="1" d="M 1921.890625 780.761719 C 1933.578125 780.671875 1950.121094 780.140625 1966.511719 777.96875 C 1992.558594 774.519531 2017.378906 768.601562 2038.800781 755.460938 C 2062.679688 740.808594 2082.988281 723.359375 2101.96875 704.808594 C 2104.050781 702.78125 2102.878906 702.261719 2100.660156 701.570312 C 2067.03125 691.160156 2033.179688 681.320312 1997.660156 675.769531 C 1969.519531 671.378906 1941.148438 669.019531 1912.859375 674.039062 C 1878.488281 680.128906 1851.75 695.308594 1835.109375 720.421875 C 1824.75 736.050781 1821.359375 753.410156 1819.160156 770.871094 C 1818.789062 773.789062 1820.890625 773.820312 1823.199219 774.078125 C 1854.328125 777.601562 1885.519531 780.511719 1921.890625 780.761719 Z M 1580.488281 780.761719 C 1616.71875 780.519531 1647.910156 777.589844 1679.050781 774.160156 C 1682.46875 773.78125 1683.699219 772.851562 1683.261719 769.960938 C 1682.050781 762.089844 1680.621094 754.261719 1678.640625 746.488281 C 1669.441406 710.320312 1641.929688 687.160156 1598.800781 675.921875 C 1573.410156 669.300781 1547.101562 670.578125 1521.03125 673.550781 C 1479.691406 678.269531 1440.699219 689.53125 1401.96875 701.46875 C 1398.660156 702.5 1398.921875 703.328125 1400.871094 705.238281 C 1415.011719 719.078125 1429.921875 732.328125 1446.628906 744.210938 C 1461.511719 754.769531 1477.199219 764.320312 1496.21875 769.851562 C 1525.011719 778.230469 1554.871094 780.71875 1580.488281 780.761719 Z M 1286.640625 515.460938 C 1286.640625 514.21875 1286.640625 512.980469 1286.640625 511.738281 C 1313.238281 529.089844 1342.160156 547.738281 1377.808594 544.390625 C 1407.378906 541.621094 1425.359375 540.140625 1509.480469 515.898438 C 1609.738281 487.011719 1621.25 485.519531 1635.859375 486.539062 C 1665.839844 488.648438 1707.738281 501.28125 1755.660156 550.480469 C 1782.28125 514.269531 1810.058594 500.679688 1829.53125 494.789062 C 1921.25 467.03125 1997.859375 558.890625 2120.96875 544.28125 C 2163.378906 539.238281 2195.980469 523.398438 2215.851562 511.738281 C 2213.558594 531.960938 2207.929688 552.019531 2204.808594 572.25 C 2186.519531 690.890625 2191.519531 714.78125 2182.398438 748.851562 C 2151.738281 863.300781 1976.71875 970.140625 1844.058594 939.25 C 1803.949219 929.910156 1774.601562 909.589844 1755.660156 893.199219 C 1731.488281 911.859375 1691.128906 937.039062 1636.988281 944.230469 C 1499.648438 962.46875 1352.160156 859.761719 1324.511719 764.410156 C 1300.839844 682.761719 1308.238281 597.519531 1286.640625 515.460938 "/>
<path fill-rule="nonzero" fill="rgb(86.326599%, 21.166992%, 14.892578%)" fill-opacity="1" d="M 807.058594 1797.039062 C 818.75 1796.949219 835.292969 1796.421875 851.675781 1794.25 C 877.734375 1790.800781 902.554688 1784.878906 923.972656 1771.738281 C 947.851562 1757.078125 968.160156 1739.640625 987.140625 1721.089844 C 989.222656 1719.058594 988.054688 1718.539062 985.828125 1717.851562 C 952.203125 1707.441406 918.347656 1697.601562 882.824219 1692.050781 C 854.691406 1687.660156 826.320312 1685.300781 798.03125 1690.320312 C 763.664062 1696.410156 736.921875 1711.589844 720.28125 1736.699219 C 709.925781 1752.328125 706.527344 1769.691406 704.328125 1787.148438 C 703.960938 1790.070312 706.058594 1790.101562 708.375 1790.359375 C 739.496094 1793.878906 770.6875 1796.789062 807.058594 1797.039062 Z M 465.65625 1797.039062 C 501.886719 1796.800781 533.078125 1793.871094 564.222656 1790.441406 C 567.644531 1790.058594 568.871094 1789.128906 568.425781 1786.238281 C 567.21875 1778.371094 565.789062 1770.539062 563.8125 1762.769531 C 554.609375 1726.601562 527.101562 1703.441406 483.96875 1692.199219 C 458.578125 1685.578125 432.269531 1686.859375 406.199219 1689.828125 C 364.855469 1694.550781 325.867188 1705.808594 287.140625 1717.75 C 283.828125 1718.78125 284.085938 1719.609375 286.042969 1721.519531 C 300.175781 1735.351562 315.085938 1748.609375 331.804688 1760.480469 C 346.679688 1771.050781 362.375 1780.601562 381.390625 1786.128906 C 410.179688 1794.511719 440.039062 1797 465.65625 1797.039062 Z M 171.808594 1531.738281 C 171.808594 1530.5 171.808594 1529.261719 171.808594 1528.019531 C 198.40625 1545.371094 227.328125 1564.019531 262.980469 1560.671875 C 292.554688 1557.898438 310.527344 1556.421875 394.652344 1532.179688 C 494.910156 1503.289062 506.421875 1501.800781 521.035156 1502.820312 C 551.015625 1504.929688 592.914062 1517.550781 640.835938 1566.761719 C 667.453125 1530.550781 695.226562 1516.960938 714.699219 1511.070312 C 806.414062 1483.308594 883.027344 1575.160156 1006.140625 1560.550781 C 1048.550781 1555.519531 1081.148438 1539.679688 1101.019531 1528.019531 C 1098.730469 1548.238281 1093.101562 1568.300781 1089.980469 1588.53125 C 1071.691406 1707.171875 1076.691406 1731.058594 1067.570312 1765.128906 C 1036.910156 1879.578125 861.890625 1986.421875 729.230469 1955.53125 C 689.121094 1946.191406 659.769531 1925.871094 640.835938 1909.480469 C 616.660156 1928.128906 576.304688 1953.320312 522.164062 1960.511719 C 384.816406 1978.75 237.328125 1876.039062 209.683594 1780.691406 C 186.011719 1699.039062 193.414062 1613.800781 171.808594 1531.738281 "/>
<g clip-path="url(#clip-0)">
<g clip-path="url(#clip-1)">
<g clip-path="url(#clip-2)">
<path fill-rule="nonzero" fill="url(#linear-pattern-0)" d="M 1286.640625 1483.058594 L 1286.640625 1986.171875 L 2215.851562 1986.171875 L 2215.851562 1483.058594 Z M 1286.640625 1483.058594 "/>
</g>
</g>
</g>
<path fill-rule="nonzero" fill="rgb(0%, 0%, 0%)" fill-opacity="1" d="M 297.871094 710.289062 C 311.859375 723.621094 324.566406 734.238281 337.46875 743.398438 C 350.238281 752.480469 365.878906 762.5 385.066406 768.089844 C 409.171875 775.101562 436.894531 778.679688 467.460938 778.730469 C 504.144531 778.488281 536.039062 775.378906 563.1875 772.398438 C 561.96875 764.878906 560.6875 758.570312 559.203125 752.730469 C 550.847656 719.890625 525.585938 697.761719 484.117188 686.949219 C 458.738281 680.339844 431.789062 682.128906 408.773438 684.761719 C 370.140625 689.160156 332.902344 699.589844 297.871094 710.289062 Z M 467.496094 792 L 467.46875 792 C 435.640625 791.960938 406.667969 788.199219 381.355469 780.828125 C 360.273438 774.699219 343.453125 763.941406 329.78125 754.21875 C 314.667969 743.488281 299.875 730.890625 283.222656 714.589844 C 282.050781 713.441406 278.9375 710.398438 279.996094 706.03125 C 281.074219 701.570312 285.386719 700.238281 287.007812 699.738281 C 324.644531 688.128906 364.933594 676.398438 407.269531 671.570312 C 431.5 668.800781 459.976562 666.941406 487.464844 674.109375 C 533.964844 686.230469 562.429688 711.578125 572.066406 749.460938 C 573.863281 756.519531 575.371094 764.179688 576.808594 773.558594 C 577.28125 776.660156 576.707031 779.289062 575.101562 781.390625 C 572.828125 784.351562 569.457031 785.070312 566.769531 785.359375 C 538.828125 788.449219 505.8125 791.761719 467.519531 792 Z M 713.257812 772.351562 C 741.734375 775.550781 773.015625 778.480469 808.882812 778.730469 C 825.183594 778.601562 839.898438 777.691406 852.628906 776 C 883.0625 771.96875 904.554688 765.308594 922.324219 754.410156 C 940.863281 743.03125 958.855469 728.910156 978.484375 710.300781 C 948.757812 701.179688 917.09375 692.160156 883.621094 686.941406 C 860.714844 683.359375 830.621094 679.929688 801.011719 685.179688 C 767.519531 691.121094 742.835938 705.761719 727.636719 728.699219 C 719.164062 741.480469 715.601562 755.519531 713.257812 772.351562 Z M 808.882812 792 L 808.832031 792 C 771.355469 791.738281 738.917969 788.621094 709.449219 785.28125 L 709.050781 785.238281 C 707.042969 785.019531 703.683594 784.660156 701.332031 781.691406 C 700.289062 780.371094 699.132812 778.078125 699.566406 774.648438 C 701.796875 756.941406 705.398438 738.230469 716.570312 721.359375 C 733.855469 695.28125 761.484375 678.710938 798.695312 672.109375 C 830.234375 666.519531 861.742188 670.089844 885.671875 673.820312 C 922.738281 679.609375 958.761719 690.289062 989.617188 699.839844 C 991.355469 700.378906 995.433594 701.640625 996.480469 705.988281 C 996.960938 707.96875 996.847656 711 993.601562 714.171875 C 970.941406 736.308594 950.496094 752.691406 929.265625 765.71875 C 909.835938 777.648438 886.738281 784.871094 854.371094 789.160156 C 841.085938 790.921875 825.796875 791.878906 808.929688 792 Z M 182.976562 530.261719 C 191.355469 566.628906 194.730469 603.75 198.007812 639.75 C 201.84375 681.929688 205.8125 725.539062 217.882812 767.171875 C 231.085938 812.71875 273.027344 860.828125 330.078125 895.871094 C 391.351562 933.5 461.707031 950.410156 523.113281 942.261719 C 564.054688 936.820312 602.910156 920.101562 638.601562 892.558594 L 642.898438 889.238281 L 647 892.789062 C 672.890625 915.199219 701.675781 930.210938 732.558594 937.398438 C 793.085938 951.488281 866.925781 936.921875 935.144531 897.421875 C 1000.96875 859.308594 1048.75 804.851562 1062.980469 751.738281 C 1067.089844 736.398438 1068.230469 723.128906 1070.128906 701.140625 C 1072.25 676.511719 1075.460938 639.308594 1085.25 575.839844 C 1086.609375 566.980469 1088.46875 558.078125 1090.261719 549.480469 C 1091.691406 542.621094 1093.148438 535.628906 1094.351562 528.648438 C 1066.921875 542.96875 1038.179688 551.980469 1008.75 555.480469 C 999.382812 556.589844 990.265625 557.089844 981.386719 557.089844 C 930.597656 557.101562 887.445312 540.519531 848.691406 525.640625 C 802.347656 507.839844 762.324219 492.46875 718.441406 505.75 C 691.753906 513.828125 668.054688 531.75 648.003906 559.019531 L 643.363281 565.328125 L 637.902344 559.71875 C 600.554688 521.371094 561.691406 500.53125 522.390625 497.769531 C 509.210938 496.851562 499.816406 497.640625 398.3125 526.890625 C 314.636719 551 295.492188 552.789062 266.519531 555.511719 L 265.421875 555.609375 C 233.214844 558.628906 206.585938 545.058594 182.976562 530.261719 Z M 491.339844 957.609375 C 467.914062 957.609375 443.855469 954.488281 419.464844 948.28125 C 386.570312 939.890625 353.257812 925.679688 323.132812 907.179688 C 263.34375 870.460938 219.230469 819.5 205.132812 770.871094 C 192.707031 728.019531 188.683594 683.761719 184.789062 640.949219 C 181.203125 601.558594 177.5 560.828125 167.214844 521.761719 L 166.996094 520.929688 L 166.996094 504.101562 L 177.257812 510.789062 C 202.238281 527.078125 230.550781 545.550781 264.179688 542.390625 L 265.277344 542.289062 C 293.507812 539.648438 312.15625 537.898438 394.640625 514.128906 C 497.222656 484.570312 507.808594 483.441406 523.320312 484.53125 C 564.035156 487.390625 603.929688 507.730469 641.992188 545.019531 C 662.789062 518.808594 687.183594 501.339844 714.597656 493.039062 C 762.835938 478.449219 806.851562 495.351562 853.449219 513.25 C 899.699219 531.011719 947.523438 549.371094 1007.179688 542.289062 C 1039.058594 538.511719 1070.109375 527.859375 1099.488281 510.628906 L 1110.929688 503.921875 L 1109.441406 517.101562 C 1108.101562 528.929688 1105.640625 540.75 1103.25 552.191406 C 1101.5 560.621094 1099.679688 569.339844 1098.359375 577.871094 C 1088.648438 640.890625 1085.589844 676.371094 1083.351562 702.28125 C 1081.390625 724.988281 1080.210938 738.699219 1075.800781 755.179688 C 1060.679688 811.609375 1010.589844 869.070312 941.796875 908.910156 C 888.613281 939.699219 831.925781 955.910156 780.042969 955.910156 C 762.558594 955.910156 745.625 954.070312 729.546875 950.328125 C 698.179688 943.019531 668.894531 928.21875 642.425781 906.308594 C 606.035156 933.371094 566.511719 949.890625 524.859375 955.421875 C 513.859375 956.878906 502.671875 957.609375 491.339844 957.609375 "/>
</svg>
